<?xml version="1.0" standalone="no"?><!DOCTYPE svg PUBLIC "-//W3C//DTD SVG 1.1//EN" "http://www.w3.org/Graphics/SVG/1.1/DTD/svg11.dtd"><svg t="1575079483338" class="icon" viewBox="0 0 1024 1024" version="1.1" xmlns="http://www.w3.org/2000/svg" p-id="1846" xmlns:xlink="http://www.w3.org/1999/xlink" width="128" height="128"><defs><style type="text/css"></style></defs><path d="M185.335 502.93l354.564-354.564c15.281-15.281 15.281-40.058 0-55.34s-40.058-15.281-55.34 0l-408.327 408.327 408.327 408.327c15.281 15.281 40.058 15.281 55.34 0s15.281-40.058 0-55.34l-354.564-351.413zM577.273 502.294l353.93-353.93c15.281-15.281 15.281-40.058 0-55.34s-40.058-15.281-55.34 0l-408.326 408.327 408.326 408.327c15.281 15.281 40.058 15.281 55.34 0s15.281-40.058 0-55.34l-353.93-352.048z" p-id="1847"></path></svg>