<?xml version="1.0" encoding="UTF-8"?>
<svg width="32px" height="32px" viewBox="0 0 32 32" version="1.1" xmlns="http://www.w3.org/2000/svg" xmlns:xlink="http://www.w3.org/1999/xlink">
    <!-- Generator: Sketch 59 (86127) - https://sketch.com -->
    <title>搜索</title>
    <desc>Created with Sketch.</desc>
    <g id="页面-1" stroke="none" stroke-width="1" fill="none" fill-rule="evenodd">
        <g id="智慧阅卷" transform="translate(-1379.000000, -116.000000)" fill-rule="nonzero">
            <g id="搜索" transform="translate(1377.000000, 114.000000)">
                <rect id="矩形" fill="#000000" opacity="0" x="0" y="0" width="36" height="36"></rect>
                <path d="M14.5226695,27.0312599 C7.61095071,27.0382846 2.00352884,21.4378939 2.0000066,14.5261752 C1.99298196,7.61445643 7.59337259,2.00703456 14.5050913,2.00000165 C21.4168101,1.99648768 27.024232,7.59336268 27.0277546,14.5085971 C27.0312632,17.8343783 25.7093882,21.0230502 23.3574351,23.3714877 C21.0160288,25.7128939 17.8379038,27.0312599 14.5226695,27.0312599 Z M14.5226695,6.25039393 C9.94884134,6.27851893 6.26095071,10.0121127 6.28891591,14.5859408 C6.31720071,19.1597689 10.0507945,22.8476596 14.6246226,22.8196944 C19.1984507,22.7914096 22.8863413,19.0578158 22.8583761,14.4839877 C22.8441538,12.3007846 21.9722788,10.2125033 20.4254038,8.67265956 C18.8644663,7.10469081 16.7375132,6.22930018 14.5226695,6.25039393 L14.5226695,6.25039393 Z M31.3871226,33.5070346 C30.8246226,33.5000033 30.286732,33.2750033 29.892982,32.8777377 L20.3691538,23.3714877 C19.5605601,22.5382846 19.5605601,21.2128939 20.3691538,20.3796908 C21.1882945,19.5535189 22.5207163,19.5464877 23.3468882,20.3656283 L23.3609507,20.3796908 L32.8847788,29.8859408 C33.7109507,30.7191439 33.7039195,32.0656283 32.8707163,32.8918002 C32.4769663,33.2820346 31.9425913,33.5035189 31.3871226,33.5070346 L31.3871226,33.5070346 Z" id="形状" fill="#FFFFFF"></path>
            </g>
        </g>
    </g>
</svg>