<?xml version="1.0" standalone="no"?><!DOCTYPE svg PUBLIC "-//W3C//DTD SVG 1.1//EN" "http://www.w3.org/Graphics/SVG/1.1/DTD/svg11.dtd"><svg t="1566531156126" class="icon" viewBox="0 0 1092 1024" version="1.1" xmlns="http://www.w3.org/2000/svg" p-id="16579" xmlns:xlink="http://www.w3.org/1999/xlink" width="136.5" height="128"><defs><style type="text/css"></style></defs><path d="M218.39 207.063c0 6.789 3.395 12.446 9.052 15.84 5.658 3.395 12.447 3.395 19.236 0 5.657-3.394 9.052-9.051 9.052-15.84 0-10.183-9.052-19.235-19.236-19.235-9.052 0-18.104 9.052-18.104 19.235z m739.996-27.156c-14.71 0-26.024 12.447-26.024 27.156s11.315 27.156 26.024 27.156c14.71 0 26.024-12.447 26.024-27.156 1.132-15.84-11.315-27.156-26.024-27.156z" fill="#75abf4" p-id="16580"></path><path d="M958.386 226.298c-11.315 0-20.367-9.052-20.367-20.367s9.052-20.366 20.367-20.366c11.315 1.131 19.235 9.052 20.367 20.366a20.282 20.282 0 0 1-20.367 20.367zM713.984 780.73c-11.315-32.813-21.499-65.626-32.813-98.44-15.841-49.785-32.814-98.44-49.786-148.225-3.395-10.183-12.446-16.972-22.63-16.972h-166.33v-1.132c1.132-1.131-1.13-2.263-2.262-3.394-2.263-1.132-5.658-1.132-7.92 1.131-1.132 1.132-1.132 2.263-2.264 2.263H177.657c-4.526 0-9.052-1.131-12.447 1.132-7.92 2.263-12.446 7.92-15.84 15.84h1.131c-15.84 45.26-30.55 90.52-45.26 136.911L72.428 770.546l-1.131 2.263c-2.263 6.789-4.526 12.446-3.395 20.367v195.748c0 5.657 0 15.84 7.92 22.63 5.658 5.657 13.578 5.657 19.236 5.657 1.131 0 1.131 0 1.131-1.131h595.165c4.526 0 12.446-1.132 18.104-5.658 4.526-4.526 6.789-10.183 6.789-18.104v-198.01c-1.132-4.527-1.132-7.921-2.263-13.579z m-14.71 18.104v193.485c0 4.526-1.131 5.658-1.131 5.658l-1.132 1.131c-1.131 1.132-3.394 1.132-5.657 1.132H95.058c-3.395 0-7.92 1.131-9.052-1.132l-1.132-1.131c-2.263-2.263-2.263-5.658-2.263-10.184V793.176H72.428l10.183-1.132c-1.131-4.526 1.132-9.052 2.263-13.578l1.132-2.263 32.813-100.702c15.841-45.26 30.55-90.52 45.26-136.91l-4.526-2.264 5.657 1.132c1.132-2.263 2.263-4.526 4.526-4.526h246.666c-4.526 4.526-9.052 9.052-13.578 14.709-2.263 2.263-2.263 4.526 0 7.92 2.263 2.263 4.526 2.263 7.92 0 7.92-6.789 13.578-14.709 19.235-21.498h179.908c2.263 0 5.657 2.263 5.657 4.526l49.786 148.225c11.315 32.814 21.498 65.627 32.813 98.44 1.131 2.263 1.131 5.658 1.131 9.052v4.526z" fill="#75abf4" p-id="16581"></path><path d="M675.513 781.86H491.08c-5.657 0-12.446 1.132-18.104 6.79s-5.657 14.71-6.789 18.104c-1.131 16.972-7.92 32.813-18.104 46.39-12.446 14.71-31.681 24.894-52.048 24.894-15.841 1.131-32.814-4.526-46.391-14.71-18.104-12.446-29.42-33.945-30.55-55.443-1.132-4.526-1.132-14.71-7.921-20.367-5.658-4.526-12.447-5.657-18.104-5.657H108.636c-4.526 0-9.052 4.526-9.052 9.052s4.526 9.052 9.052 9.052h183.301c3.395 1.131 5.658 1.131 5.658 1.131l1.131 1.132c1.132 1.131 2.263 5.657 2.263 9.052 1.132 27.155 14.71 53.18 37.34 69.02 15.84 11.315 33.944 18.104 53.18 18.104 2.263 0 3.394-1.131 5.657-1.131 24.893-1.132 47.523-12.446 63.364-30.55 14.71-15.841 21.498-36.208 22.63-56.575 1.131-1.131 1.131-5.657 2.263-6.789l1.131-1.131c1.132-1.132 2.263-1.132 5.657-1.132h183.302c4.526 0 9.052-4.526 9.052-9.052 0-5.657-4.526-10.183-9.052-10.183z m353.026-354.156s-13.578 45.26-39.603 52.048c0 0 32.814 13.578 39.603 47.523 0 0 4.526-48.654 44.128-49.785 0-1.132-41.865-22.63-44.128-49.786zM248.94 76.94s4.526-37.339 32.813-38.47c0 1.131-32.813-16.973-32.813-38.471 0 0-10.184 35.076-31.682 39.602 1.131 1.132 27.156 11.315 31.682 37.34z m821.463 276.084s-4.526 16.973-14.71 19.236c0 0 12.447 4.526 14.71 18.104 0 0 2.263-18.104 15.84-18.104 1.132-1.132-14.709-9.052-15.84-19.236z m-569.14 113.15c12.446-5.658 24.892-15.841 36.207-26.025 1.132-1.131 2.263-3.394 2.263-4.526-1.131-2.263-2.263-3.394-3.394-4.526-1.132 0-3.395 1.132-4.526 1.132-11.315 10.183-22.63 18.104-35.077 24.893-2.263 1.131-3.394 4.526-2.263 6.789 2.263 2.263 4.526 3.394 6.79 2.263z m-151.62-55.444c2.262-1.131 4.525-3.394 4.525-5.657-1.131-4.526-1.131-7.92-1.131-12.446l4.526-15.841c2.263-4.526 4.526-7.92 7.92-11.315 2.263-2.263 2.263-4.526 0-7.92-2.263-2.264-4.526-2.264-7.92 0-12.446 13.577-18.104 30.55-14.71 48.654 1.132 3.394 4.527 5.657 6.79 4.525z m208.194 10.184c9.052-9.052 18.104-20.367 26.024-31.682 1.132-1.131 1.132-2.263 1.132-3.394-1.132-2.263-1.132-2.263-2.263-3.395-1.132-1.131-2.263-1.131-3.395-1.131-1.131 1.131-2.263 1.131-3.394 2.263-9.052 11.315-16.973 21.498-26.024 31.681-2.263 2.263-2.263 4.526 1.131 7.92 2.263 0 4.526 0 6.789-2.262z m-176.513-67.89c1.132 0 1.132 0 2.263-1.131 12.447-5.658 28.288-7.92 41.865-4.526 2.263 1.131 5.658-1.132 5.658-3.395 1.131-2.263-1.132-5.657-3.395-5.657-14.709-4.526-32.813-2.263-48.654 4.526-2.263 1.131-3.394 3.394-2.263 5.657 0 2.263 2.263 4.526 4.526 4.526z m81.468 50.918c0 2.263 1.131 3.394 2.263 4.526 2.263 1.131 3.394 1.131 4.526-1.132 1.131-1.131 2.263-2.263 2.263-4.526-2.263-22.63-11.315-39.602-23.762-52.049-2.263-2.263-5.657-1.131-7.92 1.132s-2.263 4.526 1.131 7.92c12.447 9.052 19.236 23.762 21.499 44.129z m-64.495 58.837c-1.132 2.263-1.132 5.658 2.263 6.79 11.315 5.657 21.498 9.051 32.813 11.314h1.131c2.263 0 4.526-2.263 4.526-4.526 1.132-2.263-2.263-4.526-4.526-5.657-10.183-1.132-19.235-4.526-29.418-9.052-2.263-2.263-4.526-1.132-6.79 1.131z m74.678-33.945c-1.131-1.131-2.263-2.263-3.394-2.263-2.263-1.131-5.658 2.263-5.658 4.526-1.131 13.578-4.526 26.025-7.92 38.471-2.263 0-4.526 1.132-5.658 1.132-2.263 0-4.526 2.263-4.526 4.526s2.263 4.525 4.526 4.525h2.263c-2.263 4.526-4.526 9.052-6.789 14.71-1.131 2.263-1.131 5.657 2.263 6.789 2.263 1.131 5.658 1.131 6.79-2.263 3.394-5.658 5.657-12.447 9.051-19.236 4.526-1.131 9.052-1.131 12.447-2.262 2.263-1.132 4.526-3.395 3.394-5.658-1.131-2.263-3.394-4.526-5.657-3.394-2.263 1.131-4.526 1.131-5.658 1.131 3.395-11.315 5.658-23.761 7.92-36.208-2.262-2.263-3.394-3.394-3.394-4.526z m-117.675-6.789c-2.263 1.132-2.263 4.526-1.132 7.92 5.658 7.921 12.447 15.842 21.499 22.63l9.052 7.921c2.263 2.263 5.657 1.132 7.92-1.131s1.132-5.658-1.131-7.92c-3.395-2.264-5.658-4.527-9.052-7.921-7.92-6.79-14.71-13.578-19.236-21.499-2.263-1.131-5.657-1.131-7.92 0z m278.347-122.2c2.263 1.13 5.657 1.13 6.789-2.264 11.315-22.63 18.104-38.47 18.104-38.47 1.131-2.263 1.131-5.658-2.263-6.79-1.132-1.13-2.263-1.13-4.526 0-1.132 1.132-2.263 1.132-2.263 2.264 0 0-5.658 15.84-18.104 38.47-1.132 2.263 0 5.658 2.263 6.79z m-37.34 67.889c2.264 0 3.395-1.132 4.527-2.263 9.052-13.578 18.104-28.287 26.024-41.865 1.131-1.132 1.131-2.263 1.131-4.526-1.131-1.132-1.131-2.263-2.263-3.395-1.131-1.131-2.262-1.131-4.525-1.131-1.132 1.131-2.263 1.131-3.395 2.263-7.92 14.71-15.84 28.287-24.893 41.865-1.131 1.131-1.131 3.394-1.131 4.526 1.131 4.526 3.394 4.526 4.526 4.526z m87.126-106.36l-5.658 64.495 36.208-47.523z m-117.676-69.021l84.862 38.47L788.662 121.07 683.434 235.35l105.228 35.077L847.5 57.707zM359.827 596.296c11.315-7.92 21.498-14.71 31.682-22.63 1.131-1.131 2.263-2.263 2.263-4.526-1.132-2.263-1.132-3.394-3.395-4.526-2.263-1.131-3.394-1.131-4.526 1.132-10.183 7.92-20.367 15.84-31.682 22.63-2.263 1.131-3.394 4.526-1.131 7.92 1.131 0 4.526 1.132 6.789 0z m-18.104 9.052l-4.526-9.052c-21.498 12.447-37.34 18.104-37.34 18.104l3.395 9.052c2.263 0 16.973-5.658 38.471-18.104zM31.694 285.136S21.511 320.212 0.013 324.738c0 0 26.024 10.184 31.681 36.208 0 0 4.526-37.34 32.814-38.47 1.131 1.13-31.682-15.842-32.814-37.34zM854.29 637.03s-4.526 16.972-14.71 19.235c0 0 12.447 4.526 14.71 18.104 0 0 2.263-18.104 15.84-18.104 0 0-15.84-9.052-15.84-19.235z" fill="#75abf4" p-id="16582"></path></svg>