<?xml version="1.0" standalone="no"?><!DOCTYPE svg PUBLIC "-//W3C//DTD SVG 1.1//EN" "http://www.w3.org/Graphics/SVG/1.1/DTD/svg11.dtd"><svg t="1574403230784" class="icon" viewBox="0 0 1024 1024" version="1.1" xmlns="http://www.w3.org/2000/svg" p-id="7418" xmlns:xlink="http://www.w3.org/1999/xlink" width="128" height="128"><defs><style type="text/css"></style></defs><path d="M969.869846 0H54.134163A54.633382 54.633382 0 0 0 0.002005 54.633382v941.799315a27.066079 27.066079 0 0 0 39.095448 24.559961l176.430739-89.719041h754.341654a54.633382 54.633382 0 0 0 54.132159-54.633382V54.633382A54.633382 54.633382 0 0 0 969.869846 0z m0 849.072932a27.066079 27.066079 0 0 1-27.066079 27.567303H215.528192l-161.895252 82.200685V82.200685a27.066079 27.066079 0 0 1 27.066079-27.567303h862.104748a27.066079 27.066079 0 0 1 27.066079 27.567303z" p-id="7419"></path></svg>