<?xml version="1.0" encoding="UTF-8"?>
<svg width="24px" height="18px" viewBox="0 0 24 18" version="1.1" xmlns="http://www.w3.org/2000/svg" xmlns:xlink="http://www.w3.org/1999/xlink">
    <!-- Generator: Sketch 59 (86127) - https://sketch.com -->
    <title>返回-填充</title>
    <desc>Created with Sketch.</desc>
    <g id="页面-1" stroke="none" stroke-width="1" fill="none" fill-rule="evenodd">
        <g id="智慧阅卷" transform="translate(-41.000000, -882.000000)" fill-rule="nonzero">
            <g id="操作" transform="translate(16.000000, 859.000000)">
                <g id="返回-填充" transform="translate(16.000000, 11.000000)">
                    <rect id="矩形" fill="#000000" opacity="0" x="0" y="0" width="42" height="42"></rect>
                    <path d="M31.6721992,22.4776119 L13.6141079,22.4776119 L18.7925311,27.7164179 C19.3236515,28.2537313 19.3236515,29.0597015 18.7925311,29.5970149 C18.2614108,30.1343284 17.4647303,30.1343284 16.93361,29.5970149 L9.36514523,21.9402985 C9.23236515,21.8059701 9.09958506,21.6716418 9.09958506,21.5373134 C8.96680498,21.2686567 8.96680498,20.8656716 9.09958506,20.4626866 C9.23236515,20.3283582 9.23236515,20.1940299 9.36514523,20.0597015 L16.93361,12.4029851 C17.4647303,11.8656716 18.2614108,11.8656716 18.7925311,12.4029851 C19.3236515,12.9402985 19.3236515,13.7462687 18.7925311,14.2835821 L13.6141079,19.7910448 L31.6721992,19.7910448 C32.4688797,19.7910448 33,20.3283582 33,21.1343284 C33,21.9402985 32.4688797,22.4776119 31.6721992,22.4776119 Z" id="形状" fill="#006300"></path>
                </g>
            </g>
        </g>
    </g>
</svg>