<?xml version="1.0" encoding="UTF-8"?>
<svg width="21px" height="20px" viewBox="0 0 21 20" version="1.1" xmlns="http://www.w3.org/2000/svg" xmlns:xlink="http://www.w3.org/1999/xlink">
    <!-- Generator: Sketch 59 (86127) - https://sketch.com -->
    <title>文件夹</title>
    <desc>Created with Sketch.</desc>
    <g id="页面-1" stroke="none" stroke-width="1" fill="none" fill-rule="evenodd">
        <g id="智慧阅卷" transform="translate(-946.000000, -276.000000)">
            <g id="文件夹" transform="translate(942.000000, 272.000000)">
                <g>
                    <rect id="矩形" fill="#000000" fill-rule="nonzero" opacity="0" x="0" y="0" width="28" height="28"></rect>
                    <path d="M23.6870418,5.4 L11.8749564,5.4 C11.8749564,4.62702128 11.2874242,4 10.5623473,4 L5.31260909,4 C4.58788131,4 4,4.62664894 4,5.4 L4,9.59962766 C4,10.3733511 4.58753221,11 5.31260909,11 L23.6873909,11 C24.4121187,11 25,10.3733511 25,9.59962766 L25,6.8 C24.9996509,6.02664894 24.4121187,5.4 23.6870418,5.4 Z" id="路径" fill="#CCA352" fill-rule="nonzero"></path>
                    <path d="M21.7145056,7 L6.28583642,7 C5.57589057,7 5,7.59675561 5,8.33321514 L5,9.66643028 C5,10.4032444 5.57554859,11 6.28583642,11 L21.7141636,11 C22.4241094,11 23,10.4032444 23,9.66643028 L23,8.33321514 C23,7.59711019 22.4244514,7 21.7145056,7 Z" id="路径" fill="#FFFFFF" fill-rule="nonzero"></path>
                    <path d="M23.6870418,8 L5.31260909,8 C4.58788131,8 4,8.59683497 4,9.33339244 L4,22.6666076 C4,23.4021012 4.58753221,24 5.31260909,24 L23.6873909,24 C24.4121187,24 25,23.4024558 25,22.6666076 L25,9.33303781 C24.9996509,8.59683497 24.4121187,8 23.6870418,8 Z" id="路径" fill="#FFCC66" fill-rule="nonzero"></path>
                </g>
            </g>
        </g>
    </g>
</svg>