<?xml version="1.0" standalone="no"?><!DOCTYPE svg PUBLIC "-//W3C//DTD SVG 1.1//EN" "http://www.w3.org/Graphics/SVG/1.1/DTD/svg11.dtd"><svg t="1575079470882" class="icon" viewBox="0 0 1024 1024" version="1.1" xmlns="http://www.w3.org/2000/svg" p-id="1713" xmlns:xlink="http://www.w3.org/1999/xlink" width="128" height="128"><defs><style type="text/css"></style></defs><path d="M107.010586 849.802343c-36.257616 0-65.636848-30.18602-65.636848-67.40299 0-37.218263 29.379232-67.369374 65.636848-67.369374 36.261495 0 65.666586 30.151111 65.666586 67.369374C172.677172 819.616323 143.272081 849.802343 107.010586 849.802343L107.010586 849.802343zM107.010586 580.222707c-36.257616 0-65.636848-30.187313-65.636848-67.399111 0-37.218263 29.379232-67.404283 65.636848-67.404283 36.261495 0 65.666586 30.18602 65.666586 67.404283C172.677172 550.035394 143.272081 580.222707 107.010586 580.222707L107.010586 580.222707zM107.010586 310.641778c-36.257616 0-65.636848-30.182141-65.636848-67.404283C41.373737 206.020525 70.75297 175.838384 107.010586 175.838384c36.261495 0 65.666586 30.182141 65.666586 67.399111C172.677172 280.459636 143.272081 310.641778 107.010586 310.641778L107.010586 310.641778zM982.626263 240.484848c0 21.422545-17.365333 38.787879-38.787879 38.787879L336.161616 279.272727c-21.422545 0-38.787879-17.365333-38.787879-38.787879l0 0c0-21.422545 17.365333-38.787879 38.787879-38.787879l607.676768 0C965.260929 201.69697 982.626263 219.062303 982.626263 240.484848L982.626263 240.484848zM982.626263 512c0 21.422545-17.365333 38.787879-38.787879 38.787879L336.161616 550.787879c-21.422545 0-38.787879-17.365333-38.787879-38.787879l0 0c0-21.422545 17.365333-38.787879 38.787879-38.787879l607.676768 0C965.260929 473.212121 982.626263 490.577455 982.626263 512L982.626263 512zM982.626263 783.515152c0 21.422545-17.365333 38.787879-38.787879 38.787879L336.161616 822.30303c-21.422545 0-38.787879-17.365333-38.787879-38.787879l0 0c0-21.422545 17.365333-38.787879 38.787879-38.787879l607.676768 0C965.260929 744.727273 982.626263 762.092606 982.626263 783.515152L982.626263 783.515152z" p-id="1714"></path></svg>