<?xml version="1.0" standalone="no"?><!DOCTYPE svg PUBLIC "-//W3C//DTD SVG 1.1//EN" "http://www.w3.org/Graphics/SVG/1.1/DTD/svg11.dtd"><svg t="1566463585749" class="icon" viewBox="0 0 1024 1024" version="1.1" xmlns="http://www.w3.org/2000/svg" p-id="4166" xmlns:xlink="http://www.w3.org/1999/xlink" width="48" height="48"><defs><style type="text/css"></style></defs><path d="M171.008 118.08a38.592 38.592 0 0 1-37.888-39.36c0-21.696 17.024-39.296 37.888-39.296h747.136A74.88 74.88 0 0 0 852.992 0H171.008c-41.856 0-75.776 35.136-75.776 78.656v117.952h18.944c31.36 0 56.832 26.368 56.832 59.072 0 32.512-25.472 59.008-56.832 59.008h-18.944v39.232h18.944c31.36 0 56.832 26.368 56.832 59.008 0 32.704-25.472 59.072-56.832 59.072h-18.944v39.36h18.944c31.36 0 56.832 26.368 56.832 59.072 0 32.512-25.472 58.944-56.832 58.944h-18.944v39.36h18.944c31.36 0 56.832 26.496 56.832 59.008 0 32.64-25.472 59.072-56.832 59.072h-18.944v39.168h18.944c31.36 0 56.832 26.432 56.832 59.136 0 32.64-25.472 58.944-56.832 58.944h-18.944c0 43.52 33.92 78.656 75.776 78.656h681.792c41.92 0 75.904-35.2 75.904-78.656V118.08H171.008zM474.24 303.616a23.36 23.36 0 0 1 31.872-8.512l141.184 81.6c11.136 6.4 14.976 20.672 8.64 31.872a23.488 23.488 0 0 1-31.936 8.512L482.688 335.488a23.36 23.36 0 0 1-8.448-31.872z m-128.192 222.08a23.168 23.168 0 0 1 31.808-8.576l141.312 81.664a23.36 23.36 0 0 1-23.296 40.448L354.624 557.504a23.104 23.104 0 0 1-8.576-31.808z m263.296 261.888H305.024v-23.168h24.064v-23.36c0-12.864 10.368-23.296 23.296-23.296h209.792c12.928 0 23.296 10.432 23.296 23.296v23.36h23.872v23.168z m244.8-116.672a34.624 34.624 0 0 1-47.68 12.8L559.936 528.064l-29.184 50.432-141.376-81.6L471.04 355.584l141.312 81.6-29.12 50.432 258.112 135.616a34.816 34.816 0 0 1 12.8 47.68z" p-id="4167"></path></svg>