<?xml version="1.0" standalone="no"?><!DOCTYPE svg PUBLIC "-//W3C//DTD SVG 1.1//EN" "http://www.w3.org/Graphics/SVG/1.1/DTD/svg11.dtd"><svg t="1574403230784" class="icon" viewBox="0 0 1024 1024" version="1.1" xmlns="http://www.w3.org/2000/svg" p-id="7418" xmlns:xlink="http://www.w3.org/1999/xlink" width="128" height="128"><defs><style type="text/css"></style></defs><path d="M969.869846 0H54.134163A54.633382 54.633382 0 0 0 0.002005 54.633382v941.799315a27.066079 27.066079 0 0 0 39.095448 24.559961l176.430739-89.719041h754.341654a54.633382 54.633382 0 0 0 54.132159-54.633382V54.633382A54.633382 54.633382 0 0 0 969.869846 0z m0 849.072932a27.066079 27.066079 0 0 1-27.066079 27.567303H215.528192l-161.895252 82.200685V82.200685a27.066079 27.066079 0 0 1 27.066079-27.567303h862.104748a27.066079 27.066079 0 0 1 27.066079 27.567303z" p-id="7419"></path><path d="M680.663777 184.951542a56.137053 56.137053 0 0 0-79.193343 3.007342l-350.856584 350.856583-8.019579 200.489477 200.489476-8.019579 350.856584-350.856584A56.137053 56.137053 0 0 0 795.444002 300.734214z m-260.135096 488.693098L300.736219 679.659325l6.014685-120.293686 31.075868-31.075869L451.103326 642.067548z m69.670093-69.168869L375.919773 489.695546l150.367107-150.367107L642.570776 451.101322z m246.602056-247.10328l-56.137053 56.137054L566.384775 300.734214l56.137054-56.137053a28.56975 28.56975 0 0 1 40.097895 0l76.186001 76.186001a28.56975 28.56975 0 0 1-2.004895 36.589329z" p-id="7420"></path></svg>