<?xml version="1.0" standalone="no"?><!DOCTYPE svg PUBLIC "-//W3C//DTD SVG 1.1//EN" "http://www.w3.org/Graphics/SVG/1.1/DTD/svg11.dtd"><svg t="1574476145157" class="icon" viewBox="0 0 1024 1024" version="1.1" xmlns="http://www.w3.org/2000/svg" p-id="7821" xmlns:xlink="http://www.w3.org/1999/xlink" width="200" height="200"><defs><style type="text/css"></style></defs><path d="M703.80486 1024H319.921944a255.921944 255.921944 0 0 1-255.921944-255.921944V256.234169a255.921944 255.921944 0 0 1 255.921944-255.921944h191.941458c85.733851-1.34359 119.643509 1.791454 127.960972 1.791453V0.312225l319.902429 255.921944v511.843887a255.921944 255.921944 0 0 1-255.921943 255.921944zM639.824374 128.273197v63.980486c0 70.378535 56.942632 63.980486 127.960971 63.980486h63.980486z m191.941457 255.921943h-63.980486c-141.396874 0-255.921944-62.636896-255.921943-191.941457 0 0-2.559219-64.748252-1.919415-63.980486H319.921944a127.960972 127.960972 0 0 0-127.960972 127.960972v511.843887a127.960972 127.960972 0 0 0 127.960972 127.960972h383.882916a127.960972 127.960972 0 0 0 127.960971-127.960972V384.19514z m-191.941457 383.882916H383.90243a63.980486 63.980486 0 0 1 0-127.960972h255.921944a63.980486 63.980486 0 0 1 0 127.960972z m0-191.941458H383.90243a63.980486 63.980486 0 0 1 0-127.960972h255.921944a63.980486 63.980486 0 0 1 0 127.960972z" p-id="7822"></path></svg>