<?xml version="1.0" encoding="UTF-8"?>
<svg width="50px" height="50px" viewBox="0 0 50 50" version="1.1" xmlns="http://www.w3.org/2000/svg" xmlns:xlink="http://www.w3.org/1999/xlink">
    <!-- Generator: Sketch 59 (86127) - https://sketch.com -->
    <title>编组 3</title>
    <desc>Created with Sketch.</desc>
    <g id="页面-1" stroke="none" stroke-width="1" fill="none" fill-rule="evenodd">
        <g id="电子质证" transform="translate(-2494.000000, -965.000000)">
            <g id="编组-3" transform="translate(2494.000000, 965.000000)">
                <circle id="椭圆形备份-5" fill="#F4242C" cx="25" cy="25" r="25"></circle>
                <g id="确认-充值成功" transform="translate(14.000000, 17.000000)" fill="#FFFFFF" fill-rule="nonzero">
                    <path d="M21.709705,0.275567649 C21.3225549,-0.111928634 20.7314917,-0.0712197687 20.3075568,0.275567649 C17.0241726,2.96154154 7.00315935,10.5908893 7.00315935,10.5908893 C7.00315935,10.5908893 2.9509756,8.84237471 1.69248006,8.27611341 C1.19305991,8.05142801 0.677629251,7.88854338 0.290307296,8.27611341 C-0.0967690987,8.66360969 -0.0967690987,9.29201593 0.290307296,9.67946305 C0.290307296,9.67946305 6.25722142,15.683824 6.28582917,15.7124136 C6.48355417,15.9103531 6.74384788,16.0041359 7.00315935,16 C7.26232349,16.0041605 7.5226172,15.9103777 7.72046498,15.7124136 C7.74892539,15.683824 18.2103016,5.18518956 21.7096804,1.67891729 C22.0966586,1.29119976 22.0968796,0.663063932 21.709705,0.275567649 Z" id="路径"></path>
                </g>
            </g>
        </g>
    </g>
</svg>